<svg xmlns="http://www.w3.org/2000/svg" viewBox="0 0 1760 700"><g stroke="none"><path d="M1763 248V57c0-8-1-15-4-22a56 56 0 00-34-35c-7-2-14-3-22-3h-30l-21 3-17 10c-5-4-11-7-18-10-6-2-14-3-22-3h-37a66 66 0 00-32 8l-10-5c-7-2-14-3-22-3h-117c-8 0-15 1-22 3l-17 10c-5-4-11-7-18-10-6-2-14-3-22-3h-37c-8 0-15 1-22 3a56 56 0 00-34 35c-3 7-4 14-4 22v166h-22V57c0-8 0-15-3-22A56 56 0 00 1140 0c-7-2-14-3-22-3h-37c-8 0-15 1-22 3l-17 10c-5-4-11-7-18-10-6-2-14-3-22-3h-37c-7 0-15 1-22 3l-17 10L910 0c-7-2-14-3-22-3h-76a62 62 0 00-47 20l-8-7c-10-8-24-13-40-13h-75a66 66 0 00-30 7A40 40 0 00 590-2H475c-5 0-10 1-14 3a40 40 0 00-13-3H332a40 40 0 00-15 4 40 40 0 00-15-3H187c-5 0-10 0-14 2a40 40 0 00-14-2H43a40 40 0 00-40 40v304a40 40 0 00 10 25 40 40 0 00-10 26V560a40 40 0 00 40 40h558c-2 3-3 7-2 11a34 34 0 00 0 7l15 63a26 26 0 00 27 20h11c4 0 7 0 10-2 3 1 6 2 10 1h12c5 0 10-2 14-4a26 26 0 00 14 3h30c6 0 12-3 17-7a26 26 0 00 17 5h10a20 20 0 00 10-3c4 2 8 2 12 2H820l12-3a48 48 0 00 19 3c8 0 16-2 23-6a26 26 0 00 15 4h7c4 0 9-2 12-4 3 2 8 3 13 3h13c4 0 7-2 10-3a27 27 0 00 10 2h7c5 0 9-2 12-4 4 1 8 3 13 3h13l10-3a27 27 0 00 10 1h30l8-2a27 27 0 00 8 1h7c5 0 10-2 13-3l12 2h13c8 0 15-4 20-9a26 26 0 00 18 7h7c5 0 9-1 13-3 3 1 7 3 12 2h13c4 0 7 0 10-2a27 27 0 00 10 1h10c3 0 7 0 10-2a27 27 0 00 10 1h30c4 0 8-2 12-4a26 26 0 00 13 3h10c7 0 14-4 18-9 5-5 7-11 7-19v-10l3 15a26 26 0 00 27 20h12c3 0 6 0 10-2l9 2h12c4 0 7-2 10-3a27 27 0 00 11 2h9c5 0 10-2 13-4 4 2 8 3 13 2h10c6 0 10-1 13-3a43 43 0 00 18 3 52 52 0 00 22-5 26 26 0 00 14 3h10a20 20 0 00 10-3c3 2 7 2 10 2h10c5 0 10-2 14-5a26 26 0 00 15 4h10c4 0 10-2 13-5a26 26 0 00 15 4l30-1c2 0 5 0 7-2a27 27 0 00 9 1h7l12-3 13 2h13c7 0 14-3 18-8 5-5 7-12 7-20l-2-63c0-4 0-7-2-10a50 50 0 00 5-22v-17a54 54 0 00-25-46c2-7 4-14 4-22v-15c0-8-2-15-4-22a54 54 0 00 25-46v-15a54 54 0 00-20-43l11-22c6-15 10-32 10-50Z" fill="#000"/><path d="M620 305V53c0-14 8-21 21-21h76c12 0 20 6 23 19l24 115L790 50c3-12 10-20 23-20h75c13 0 20 8 20 22v252c0 13-7 20-20 20H850c-13 0-20-7-20-20 0-57 0-115 6-198l-47 200c-3 12-10 18-22 18h-13c-12 0-20-6-23-18l-46-195c6 81 6 137 6 193 0 13-7 20-20 20h-30c-13 0-20-7-20-20Zm325 0V53c0-14 7-21 20-21h38c13 0 20 7 20 20v253c0 13-7 20-20 20h-37c-14 0-20-7-20-20Zm115 0V53c0-14 8-21 21-21h38c13 0 20 7 20 20V250c0 6 4 10 10 10h50c13 0 20 7 20 20v25c0 13-7 20-20 20H1080c-13 0-20-7-20-20Zm180 0V53c0-14 7-21 20-21h38c13 0 20 7 20 20v253c0 13-7 20-20 20H1260c-14 0-21-7-21-20Zm116 0V53c0-14 7-21 20-21h118c13 0 20 7 20 20v20c0 14-7 21-20 21h-50c-6 0-10 4-10 10v32c0 7 4 10 10 10h21c13 0 20 8 20 21v20c0 14-7 22-20 22h-20c-7 0-10 3-10 10V250c0 6 3 10 10 10h49c13 0 20 7 20 20v25c0 13-7 20-20 20h-118c-13 0-20-7-20-20Zm181-61V53c0-14 7-21 20-21h38c13 0 20 7 20 20v182c0 21 7 30 20 30 12 0 18-9 18-30V53c0-14 7-21 20-21h30c12 0 20 7 20 20v193c0 51-34 85-93 85-58 0-93-34-93-86ZM620 546V361c0-10 6-15 16-15h51c57 0 78 42 78 106 0 66-20 110-75 110h-54c-10 0-16-6-16-16Zm61-32h4c14 0 20-10 20-25v-70c0-16-6-28-20-28-4 0-7 3-7 7v108c0 5 1 8 3 8Zm104 32V361c0-10 5-15 15-15h86c10 0 15 5 15 15v15c0 10-5 15-15 15H850c-5 0-8 3-8 7v24c0 5 3 7 8 7h15c10 0 15 6 15 16V460c0 10-5 15-15 15H850c-5 0-8 3-8 7v24c0 5 3 7 8 7h36c10 0 15 6 15 16v17c0 10-5 15-15 15H800c-10 0-15-5-15-15ZM960 561h-27c-10 0-15-5-15-15V361c0-10 5-15 15-15h86c10 0 15 5 15 15v15c0 10-5 15-15 15h-36c-5 0-8 3-8 7v24c0 5 3 7 8 7h15c10 0 15 6 15 16V460c0 10-5 15-15 15h-15c-5 0-8 3-8 7v64c0 10-5 15-15 15Zm88-15V361c0-10 5-15 15-15h86c10 0 15 5 15 15v15c0 10-5 15-15 15h-36c-5 0-8 3-8 7v24c0 5 3 7 8 7h15c10 0 15 6 15 16V460c0 10-5 15-15 15h-15c-5 0-8 3-8 7v24c0 5 3 7 8 7h36c10 0 15 6 15 16v17c0 10-5 15-15 15h-86c-10 0-15-5-15-15Zm133 0V361c0-10 5-15 15-15h40c8 0 13 4 16 12l43 116c-3-37-3-73-3-113 0-10 5-15 15-15h21c10 0 15 5 15 15v185c0 10-5 15-15 15h-39c-8 0-14-3-17-12L1230 430c2 38 3 76 3 117 0 10-6 15-16 15h-20c-10 0-16-5-16-15ZM1500 397c0 10-5 14-14 16-7 2-20 3-26 3-7 0-11-3-11-11 0-13-4-20-15-20-8 0-13 5-13 12 0 33 84 37 84 107 0 44-36 60-72 60-30 0-71-10-71-60 0-11 0-26 11-26 8 0 21 2 29 4 10 3 13 5 13 10v7c0 14 7 20 16 20 9 0 14-5 14-14 0-36-83-38-83-104 0-36 25-58 68-58 48 0 66 19 70 54Zm23 149V361c0-10 5-15 15-15h27c10 0 15 5 15 15v185c0 10-5 15-15 15h-27c-10 0-15-5-15-15Zm85 0V361c0-10 5-15 15-15h86c10 0 15 5 15 15v15c0 10-5 15-15 15h-36c-5 0-8 3-8 7v24c0 5 3 7 8 7h15c10 0 15 6 15 16V460c0 10-5 15-15 15h-15c-5 0-8 3-8 7v24c0 5 3 7 8 7h36c10 0 15 6 15 16v17c0 10-5 15-15 15h-86c-10 0-15-5-15-15Z" fill="#fff"/><path d="M157 335H40V33h116v302Zm145 0H186V33h116v302Zm146 0H330V33h117v302Zm143 0H475V33h116v302ZM40 563V396h394v167H40Zm600 49 8 41 4-41c0-3 2-5 5-5h8c3 0 5 1 5 4l7 42 5-42c0-3 2-5 6-5h7c3 0 5 0 5 4v3l-10 63c-1 3-3 4-6 5H670c-3 0-5-2-5-5L660 650l-3 27c0 3-3 4-6 5h-10c-4 0-6-1-7-5L620 615v-3c0-3 0-4 4-4h10c3 0 5 0 5 4Zm67 63-2-65c0-3 2-5 5-5h30c3-1 5 0 5 4v5c0 4-2 6-5 6h-12c-2 0-3 1-3 3v8c0 2 1 2 3 2h5c4 0 6 2 6 5v6c0 3-2 5-5 5h-5c-2 0-3 1-3 3v8c0 2 1 3 3 3H740c4 0 6 0 6 4v6c0 4-2 6-5 6h-30c-3 0-5-1-5-4Zm63-2-2-65c0-3 2-5 5-5h10c3 0 5 1 5 5l1 24 11-26c1-3 3-4 6-4h10c3 0 5 0 5 3l-1 3-12 26v3l16 33 1 2c0 3-2 4-4 4h-13c-3 0-5 0-6-3l-10-24v-1H790l-1 2v22c0 3-1 5-5 5h-10c-3 0-4-1-5-4Zm57-18-2-48c0-4 2-6 5-6h10c3 0 5 2 5 5l1 46c0 6 2 8 5 8 4 0 5-3 5-8l-2-46c0-4 2-6 5-6h8c3 0 5 2 5 5l2 50c0 12-8 21-23 21-15 0-24-7-24-20Zm56 15-2-65c0-4 2-5 5-6H900c3 0 5 1 6 4l16 40c-2-13-2-26-2-40 0-3 1-5 5-5h7c3 0 5 2 5 5l2 64c0 4-1 6-5 6h-13c-3 0-5-1-6-4l-16-41 2 40c0 4-2 6-5 6H890c-4 0-5-2-6-5Zm66-3-2-64c0-4 1-6 5-6h13c3 0 5 1 6 4l16 40-2-40c0-3 2-5 5-5h7c4 0 5 2 6 5l1 64c0 4-1 6-5 6h-13c-3 0-5-1-6-4l-16-41c2 13 2 26 2 40 0 4-1 6-5 6h-7c-3 0-5-2-5-5Zm65-2-2-64c0-4 2-6 5-6h30c3 0 5 1 5 4v6c0 3-1 5-5 5h-12c-2 0-3 1-3 3v8c0 2 1 3 3 3h5c4 0 6 1 6 5v5c0 3-2 5-5 5h-5c-2 0-3 1-3 3v8c0 2 1 3 3 3h13c3 0 5 1 5 5v6c0 3-2 5-5 5h-30c-3 1-5 0-5-4Zm46-2-2-64c0-3 2-5 5-5h13c3 0 5 0 6 3l16 40-2-39c0-3 2-5 5-5h7c4 0 6 1 6 5l2 64c0 3-2 5-5 5h-14c-3 0-5 0-6-3l-16-42c2 13 2 27 3 40 0 4-2 6-5 6h-8c-3 0-5-1-5-5Zm83-3-2-63c0-4 2-6 5-6h13c3 0 5 1 6 4l16 40-2-40c0-3 2-5 5-5h7c4 0 6 2 6 5l2 64c0 4-2 5-5 5H1180c-3 1-5 0-6-3l-16-41c2 13 2 26 3 40 0 4-2 6-5 6h-8c-3 0-5-2-5-5Zm65-1-2-64c0-4 2-6 5-6h10c3 0 5 2 5 5l2 64c0 4-2 5-5 6h-10c-3 0-5-2-5-5Zm29-1-2-64c0-4 2-6 5-6h30c3 0 5 1 5 4v5c0 4-1 6-4 6h-13c-2 0-2 1-2 3v8c0 2 0 3 3 3h5c3 0 5 1 5 5v5c0 3-1 5-5 5h-5c-2 0-3 1-2 3v8c0 2 0 3 2 3h13c3 0 5 1 5 4v7c0 3-1 5-5 5h-30c-3 1-5 0-5-4Zm56-2-1-51c0-2-1-3-3-3h-6c-3 0-5-1-5-5v-5c0-3 1-5 5-5l36-1c3 0 5 1 6 5v5c0 3-2 5-5 5h-6c-2 0-3 2-3 3l2 51c0 4-2 6-5 6h-10c-3 0-5-2-5-5Zm70-66 7 40 4-41c0-3 2-5 6-5h7c3 0 5 1 6 4l6 42 6-42c0-3 2-5 5-5h7c3 0 5 0 5 4v3l-10 63c-1 3-3 5-6 5h-12c-3 0-5-1-6-4l-5-26-3 26c0 3-2 5-5 5h-12c-3 0-5-1-5-4l-15-63V590c0-3 1-4 4-4h10c3 0 5 1 6 4Zm94 61-2-9c0-1-1-2-3-2h-7c-2 0-3 1-3 3v9c0 3-3 5-6 5h-9c-3 0-5-1-5-4v-2l12-64c0-3 2-5 5-5h17c4 0 6 0 6 4l16 64v1c0 3-2 5-5 5h-10c-4 0-6-1-6-5Zm-5-26-5-26-3 27h8Zm26-7c-1-24 5-38 24-40 10 0 23 4 23 25v1c0 3-1 5-5 5h-7c-3 0-5-1-6-4v-2c0-5 0-8-5-8-3 0-4 3-4 8v28c1 6 3 8 6 8s5-2 4-10v-4c0-3 2-5 5-5h8c3 0 5 1 5 5v2c0 18-4 28-23 29-17 0-25-14-25-38Zm56 30-2-64c0-3 2-5 5-5h10c3 0 5 1 5 5v21c0 2 1 3 3 3h5c2 0 3-1 3-3v-22c0-3 0-5 4-5h10c3 0 5 1 5 5l2 64c0 3-2 5-5 5h-10c-3 0-5-1-5-4v-23c0-2-1-3-3-3h-5c-2 0-3 2-3 3v23c0 3 0 5-4 5h-10c-3 0-5-1-5-5Zm68-2-1-50c0-3-1-4-3-3h-6c-3 0-5-2-5-5v-5c0-4 1-6 5-6l36-1c4 0 6 2 6 5v5c0 4-2 5-5 6h-6c-2 0-2 0-2 2l1 52c0 3-1 5-5 5h-10c-3 0-5-1-5-5Zm38-1-2-64c0-3 2-5 6-5l30-1c3 0 4 1 5 5v5c0 3-2 5-5 5H1660l-2 3v8c0 2 0 3 3 3h5c3 0 5 1 5 5v5c0 3-1 5-5 6h-5c-2 0-2 0-2 2v9c0 1 0 2 3 2h12c3 0 5 1 5 5v6c0 3-1 5-4 5l-30 1c-3 0-5-2-6-5Zm46-1-2-65c0-3 2-5 5-5h14c3 0 5 0 6 4l16 40c-2-13-2-26-3-40 0-3 2-5 5-5h8c3 0 5 1 5 5l2 64c0 3-2 5-5 5h-13c-3 0-5 0-6-3l-16-42 2 41c0 3-2 5-5 6h-7c-4 0-6-2-6-5Z" fill="#a3cd39"/></g></svg>
