<svg xmlns="http://www.w3.org/2000/svg" width="176" height="70" xmlns:v="https://vecta.io/nano"><path d="M176.306 24.753V5.696c0-.779-.124-1.521-.368-2.204-.291-.815-.743-1.53-1.344-2.124s-1.312-1.035-2.126-1.32a6.61 6.61 0 0 0-2.189-.358h-2.891a6.61 6.61 0 0 0-2.189.358c-.643.225-1.225.55-1.735.968-.51-.418-1.092-.742-1.735-.968a6.61 6.61 0 0 0-2.189-.358h-3.718a6.61 6.61 0 0 0-2.189.358c-.357.125-.695.281-1.012.466-.317-.185-.656-.341-1.013-.466a6.61 6.61 0 0 0-2.189-.358h-11.731a6.61 6.61 0 0 0-2.189.358c-.643.225-1.225.55-1.735.968-.51-.418-1.092-.743-1.735-.968a6.61 6.61 0 0 0-2.189-.358h-3.718a6.61 6.61 0 0 0-2.189.358c-.814.285-1.529.729-2.126 1.32a5.62 5.62 0 0 0-1.344 2.124c-.244.683-.367 1.424-.367 2.204v16.569l-.17-.002h-1.987V5.696c0-.779-.124-1.521-.368-2.204a5.62 5.62 0 0 0-1.344-2.124c-.597-.591-1.312-1.035-2.126-1.32a6.61 6.61 0 0 0-2.189-.358h-3.718a6.61 6.61 0 0 0-2.189.358c-.643.225-1.225.55-1.735.968-.51-.418-1.092-.743-1.735-.968a6.61 6.61 0 0 0-2.189-.358h-3.717a6.61 6.61 0 0 0-2.189.358c-.643.225-1.225.55-1.735.968-.51-.418-1.092-.743-1.735-.968a6.61 6.61 0 0 0-2.189-.358h-7.559c-1.545 0-2.939.485-4.033 1.402a5.8 5.8 0 0 0-.675.668 5.79 5.79 0 0 0-.764-.738C74.664.151 73.285-.309 71.763-.309h-7.559a6.61 6.61 0 0 0-2.189.358c-.287.101-.562.221-.824.361C60.578.024 59.853-.2 59.075-.2L47.5-.18a3.97 3.97 0 0 0-1.379.25c-.416-.148-.864-.228-1.331-.228l-11.575.02a3.97 3.97 0 0 0-1.485.289 3.97 3.97 0 0 0-1.48-.284l-11.575.02a3.98 3.98 0 0 0-1.394.255c-.433-.162-.902-.25-1.392-.25L4.312-.09C2.113-.086.333 1.7.336 3.9l.052 30.366c.002.91.315 1.788.88 2.49a3.98 3.98 0 0 0-.962 2.602l.028 16.745a3.98 3.98 0 0 0 3.981 3.974l39.126-.067.213-.006h16.476c-.188.372-.292.787-.278 1.232.007.209.032.384.1.691l.005.021 1.451 6.22c.276 1.184 1.218 1.985 2.392 2.066.095.007.192.008.29.005l1.128-.036c.337-.011.656-.077.949-.195.301.1.624.145.962.135l1.222-.039c.532-.017 1.017-.176 1.42-.446.338.198.728.321 1.152.35a2.88 2.88 0 0 0 .29.005l2.966-.094c.64-.02 1.227-.249 1.678-.649a2.59 2.59 0 0 0 1.426.537c.095.007.192.008.29.005l.94-.03c.409-.013.796-.111 1.14-.284.361.152.758.224 1.168.211l1.222-.039c.402-.013.779-.106 1.116-.273a4.77 4.77 0 0 0 1.342.283c.184.013.372.016.563.01.871-.028 1.655-.241 2.313-.625.35.217.759.352 1.205.383.095.007.192.008.29.005l.731-.023c.44-.014.855-.126 1.217-.325a2.77 2.77 0 0 0 1.258.247l1.326-.042c.352-.011.687-.085.993-.215.223.079.462.129.712.146a2.88 2.88 0 0 0 .29.005l.731-.023c.44-.014.855-.126 1.217-.325a2.77 2.77 0 0 0 1.258.247l1.326-.042c.357-.011.692-.087.993-.216.226.08.466.13.714.147a2.88 2.88 0 0 0 .288.005l2.966-.094c.285-.009.556-.059.806-.144a2.72 2.72 0 0 0 .523.088c.095.007.192.008.29.005l.731-.023c.449-.014.862-.13 1.218-.325a2.77 2.77 0 0 0 1.257.247l1.326-.042c.756-.024 1.408-.334 1.861-.829l.015.015c.432.408.994.648 1.606.69.095.007.191.008.288.005l.731-.023c.44-.014.855-.126 1.217-.325a2.77 2.77 0 0 0 1.258.247l1.326-.042c.352-.011.688-.085.994-.215.226.08.465.13.713.147.095.007.191.008.288.005l.94-.03a2.74 2.74 0 0 0 .986-.213 2.69 2.69 0 0 0 .708.145c.095.007.192.008.29.005l2.966-.094a2.69 2.69 0 0 0 1.296-.37c.313.16.661.257 1.027.282.095.007.191.008.288.005l.94-.03c.723-.023 1.379-.312 1.846-.814s.707-1.167.684-1.886l-.036-1.127.369 1.58c.276 1.184 1.218 1.985 2.392 2.066.095.007.192.008.29.005l1.128-.036a2.76 2.76 0 0 0 .949-.195c.301.1.624.145.962.135l1.222-.039a2.74 2.74 0 0 0 1.056-.243 2.7 2.7 0 0 0 .78.17 2.95 2.95 0 0 0 .295.005l.867-.027c.485-.015.931-.149 1.31-.375.399.207.851.307 1.333.292l1.065-.034c.496-.016.892-.146 1.198-.309.416.172.866.277 1.343.31a4.89 4.89 0 0 0 .491.009c.742-.023 1.374-.153 1.932-.396l.292-.142a2.64 2.64 0 0 0 1.087.314 2.88 2.88 0 0 0 .288.005l.94-.03c.369-.012.72-.092 1.037-.235a2.73 2.73 0 0 0 1.051.169l.94-.03c.538-.017 1.024-.18 1.423-.451.339.201.732.325 1.159.355.095.007.192.008.29.005l.94-.03a2.67 2.67 0 0 0 1.423-.451c.34.201.733.326 1.159.355.095.007.192.008.29.005l2.966-.094c.281-.009.552-.058.806-.145.169.046.345.076.524.088.095.007.191.008.288.005l.731-.023c.44-.014.855-.126 1.217-.325a2.77 2.77 0 0 0 1.258.247l1.326-.042c.718-.023 1.371-.306 1.836-.798s.717-1.171.695-1.898l-.192-6.418c-.01-.321-.079-.622-.187-.904a5.78 5.78 0 0 0 .431-2.216v-1.74c0-1.526-.555-2.916-1.564-3.915a5.09 5.09 0 0 0-.936-.731c.268-.666.408-1.399.408-2.166v-1.5c0-.767-.14-1.5-.408-2.166a5.09 5.09 0 0 0 .936-.731c1.009-.998 1.564-2.389 1.564-3.915v-1.44c0-1.526-.555-2.916-1.564-3.915a5.06 5.06 0 0 0-.491-.427c.474-.69.872-1.437 1.189-2.237.594-1.496.896-3.148.896-4.911z"/><g fill="#fff"><path d="M62.078 30.457V5.261c0-1.322.743-2.065 2.065-2.065h7.559c1.239 0 2.024.62 2.272 1.859l2.437 11.524 2.52-11.524c.248-1.198.991-1.859 2.231-1.859h7.559c1.322 0 2.065.744 2.065 2.065v25.197c0 1.322-.744 2.065-2.065 2.065h-3.718c-1.322 0-2.065-.702-2.065-2.024 0-5.741.083-11.524.62-19.827L78.93 30.705c-.289 1.239-1.033 1.817-2.272 1.817h-1.239c-1.239 0-1.983-.578-2.272-1.817L68.48 11.25c.578 8.096.62 13.672.62 19.249 0 1.322-.744 2.024-2.065 2.024h-2.891c-1.322 0-2.065-.744-2.065-2.065z"/><use href="#B"/><path d="M106.07 30.457V5.261c0-1.322.743-2.065 2.065-2.065h3.718c1.322 0 2.065.744 2.065 2.065v19.703c0 .661.372 1.033 1.033 1.033h4.915c1.322 0 2.065.744 2.065 2.065v2.396c0 1.322-.744 2.065-2.065 2.065h-11.731c-1.322 0-2.065-.744-2.065-2.065z"/><use href="#B" x="29.494"/><path d="M135.563 30.457V5.261c0-1.322.743-2.065 2.065-2.065h11.731c1.322 0 2.065.744 2.065 2.065v1.983c0 1.322-.744 2.065-2.065 2.065h-4.915c-.661 0-1.033.372-1.033 1.033v3.18c0 .661.372 1.033 1.033 1.033h2.065c1.322 0 2.065.743 2.065 2.065v2.065c0 1.322-.744 2.065-2.065 2.065h-2.065c-.661 0-1.033.372-1.033 1.033v3.181c0 .661.372 1.033 1.033 1.033h4.915c1.322 0 2.065.744 2.065 2.065v2.396c0 1.322-.744 2.065-2.065 2.065h-11.731c-1.322 0-2.065-.744-2.065-2.065zm18.133-6.03V5.261c0-1.322.743-2.065 2.065-2.065h3.718c1.322 0 2.065.744 2.065 2.065v18.092c0 2.189.62 3.015 1.859 3.015 1.322 0 1.859-.826 1.859-3.015V5.261c0-1.322.744-2.065 2.065-2.065h2.891c1.322 0 2.065.744 2.065 2.065V24.51c0 5.122-3.346 8.468-9.294 8.468-5.783 0-9.294-3.346-9.294-8.55zM62.037 54.614V36.108c0-.971.546-1.517 1.517-1.517h5.158c5.673 0 7.767 4.217 7.767 10.618 0 6.553-2.002 10.922-7.463 10.922h-5.461c-.971 0-1.517-.546-1.517-1.517zm6.098-3.216a1.15 1.15 0 0 0 .334.03c1.456 0 1.942-1.092 1.942-2.548v-6.887c0-1.729-.485-2.912-1.881-2.912-.455 0-.728.273-.728.759v10.8c0 .455.121.728.334.758zm10.315 3.216V36.108c0-.971.546-1.517 1.517-1.517h8.616c.971 0 1.517.546 1.517 1.517v1.456c0 .971-.546 1.517-1.517 1.517h-3.61c-.485 0-.759.273-.759.759v2.336c0 .485.273.759.759.759h1.517c.971 0 1.517.546 1.517 1.517v1.517c0 .971-.546 1.517-1.517 1.517h-1.517c-.485 0-.759.273-.759.758v2.336c0 .485.273.758.759.758h3.61c.971 0 1.517.546 1.517 1.517v1.76c0 .971-.546 1.517-1.517 1.517h-8.616c-.971 0-1.517-.546-1.517-1.517zm17.566 1.517h-2.73c-.971 0-1.517-.546-1.517-1.517V36.108c0-.971.546-1.517 1.517-1.517h8.616c.971 0 1.517.546 1.517 1.517v1.456c0 .971-.546 1.517-1.517 1.517h-3.61c-.485 0-.759.273-.759.759v2.336c0 .485.273.759.759.759h1.517c.971 0 1.517.546 1.517 1.517v1.517c0 .971-.546 1.517-1.517 1.517h-1.517c-.485 0-.759.273-.759.758v6.371c0 .971-.546 1.517-1.517 1.517z"/><use href="#C"/><path d="M118.103 54.614V36.108c0-.971.546-1.517 1.517-1.517h3.883c.88 0 1.426.394 1.729 1.214l4.278 11.589c-.303-3.671-.334-7.311-.334-11.286 0-.971.546-1.517 1.517-1.517h2.124c.971 0 1.517.546 1.517 1.517l-.03 18.506c0 1.001-.546 1.517-1.517 1.517h-3.853c-.88 0-1.426-.364-1.729-1.214l-4.247-12.044c.273 3.823.303 7.615.303 11.741 0 .971-.546 1.517-1.517 1.517h-2.124c-.971 0-1.517-.546-1.517-1.517zm31.825-14.956c.091.971-.394 1.396-1.365 1.638-.698.182-2.033.334-2.518.303-.758 0-1.153-.334-1.153-1.123 0-1.274-.425-1.972-1.487-1.972-.849 0-1.335.485-1.335 1.213 0 3.307 8.464 3.641 8.464 10.649 0 4.399-3.671 6.098-7.281 6.098-3.004 0-7.099-1.092-7.099-6.159 0-1.031.091-2.518 1.183-2.518.758 0 2.063.212 2.852.425.94.243 1.335.455 1.335.91 0 .334-.061.577-.061.789 0 1.426.728 2.002 1.608 2.002s1.396-.516 1.396-1.396c0-3.58-8.313-3.823-8.313-10.406 0-3.58 2.579-5.855 6.887-5.855 4.763 0 6.523 1.911 6.887 5.4zm2.336 14.956V36.108c0-.971.546-1.517 1.517-1.517h2.731c.971 0 1.517.546 1.517 1.517v18.506c0 .971-.546 1.517-1.517 1.517h-2.731c-.971 0-1.517-.546-1.517-1.517z"/><use href="#C" x="55.975"/></g><g fill="#a3cd39"><path d="M15.685 33.515H4.075V3.281h11.61v30.234z"/><use href="#D"/><use href="#D" x="14.513"/><path d="M59.132 33.51h-11.61V3.276h11.61V33.51zM4.084 56.301V39.556h39.313v16.745H4.084zm59.943 4.902l.758 4.147.412-4.173a.51.51 0 0 1 .538-.512l.741-.023a.51.51 0 0 1 .569.477l.664 4.139.506-4.186c.042-.317.225-.492.538-.501l.731-.023c.303-.01.485.132.494.416.001.042.003.084-.032.306l-1.035 6.299a.52.52 0 0 1-.549.491l-1.222.039c-.324.01-.517-.152-.579-.466l-.468-2.586-.325 2.612c-.042.328-.225.492-.538.501l-1.128.036a.52.52 0 0 1-.579-.456l-1.451-6.22c-.049-.22-.05-.262-.051-.304-.009-.284.164-.437.467-.447l.971-.031c.313-.01.507.153.569.467z"/><use href="#E"/><path d="M77.045 67.259l-.203-6.418c-.011-.337.171-.532.506-.543l.94-.03c.334-.011.528.173.539.51l.077 2.451 1.109-2.626a.61.61 0 0 1 .593-.408l.982-.031c.292-.009.464.122.471.343a.56.56 0 0 1-.065.265l-1.203 2.608c-.03.054-.038.117-.036.17.002.063.014.126.048.188l1.629 3.255a.64.64 0 0 1 .071.251c.007.221-.155.374-.448.383l-1.222.039c-.292.009-.495-.121-.619-.391l-.985-2.381c-.023-.062-.056-.104-.077-.134s-.054-.04-.074-.04c-.073.002-.121.13-.118.246l.07 2.23c.011.337-.171.532-.506.543l-.94.03c-.334.011-.528-.173-.539-.51z"/><path d="M82.657 65.544l-.154-4.882c-.011-.337.171-.532.506-.543l.94-.03c.334-.011.528.173.539.51l.145 4.608c.018.558.181.763.494.753.334-.011.463-.225.446-.783l-.145-4.608c-.011-.337.171-.532.506-.543l.731-.023c.334-.011.528.173.539.51l.155 4.903c.041 1.305-.778 2.184-2.282 2.231-1.462.046-2.377-.778-2.418-2.104z"/><use href="#F"/><use href="#F" x="6.527" y="-0.206"/><path d="M101.399 66.49l-.203-6.418c-.011-.337.171-.532.506-.543l2.966-.094c.334-.011.528.173.539.51l.016.505c.011.337-.171.532-.506.543l-1.243.039c-.167.005-.258.103-.253.271l.026.81c.005.168.102.26.269.255l.522-.017c.334-.011.528.173.539.51l.017.526c.011.337-.171.532-.506.543l-.522.017c-.167.005-.258.103-.253.271l.026.81c.005.168.102.26.269.255l1.243-.039c.334-.011.528.173.539.51l.019.61c.011.337-.171.532-.506.543l-2.966.094c-.334.011-.528-.173-.539-.51z"/><use href="#F" x="17.639" y="-0.557"/><use href="#F" x="25.941" y="-0.819"/><path d="M120.814 65.877l-.203-6.418c-.011-.337.171-.532.506-.543l.94-.03c.334-.011.528.173.539.51l.203 6.418c.011.337-.171.532-.506.543l-.94.03c-.334.011-.528-.173-.539-.51zm2.924-.092l-.203-6.418c-.011-.337.171-.532.506-.543l2.966-.094c.334-.011.528.173.539.51l.016.505c.011.337-.171.532-.506.543l-1.243.039c-.167.005-.258.103-.253.271l.026.81c.005.168.102.26.269.255l.522-.017c.334-.011.528.173.539.51l.017.526c.011.337-.171.532-.506.543l-.522.016c-.167.005-.258.103-.253.271l.026.81c.005.168.102.26.269.255l1.243-.039c.334-.011.528.173.539.51l.019.61c.011.337-.171.532-.506.543l-2.966.094c-.334.011-.528-.173-.539-.51z"/><use href="#G"/><path d="M136.264 58.923l.758 4.147.412-4.173a.51.51 0 0 1 .538-.512l.741-.023a.51.51 0 0 1 .569.477l.664 4.139.506-4.186c.042-.317.225-.492.538-.501l.731-.023c.303-.01.485.132.494.416.001.042.003.084-.032.306l-1.035 6.299a.52.52 0 0 1-.549.491l-1.222.039c-.324.01-.517-.152-.579-.466l-.468-2.586-.325 2.612c-.042.328-.225.492-.538.501l-1.128.036a.52.52 0 0 1-.579-.456l-1.451-6.22c-.049-.22-.05-.262-.051-.304-.009-.284.164-.437.467-.446l.971-.031c.313-.01.507.153.569.467zm9.406 6.211l-.164-.9c-.026-.168-.133-.238-.29-.233l-.721.023c-.157.005-.248.082-.264.251l-.097.909a.5.5 0 0 1-.538.501l-.867.027c-.313.01-.496-.132-.504-.405-.002-.053.007-.106.016-.158l1.134-6.47a.52.52 0 0 1 .549-.481l1.723-.054a.52.52 0 0 1 .579.445l1.529 6.386c.012.052.024.105.026.157.009.274-.164.426-.478.436l-1.065.034c-.313.01-.506-.142-.569-.467zm-.49-2.607l-.489-2.586-.273 2.61.762-.024zm2.579-.765c-.076-2.409.559-3.809 2.439-3.868.971-.031 2.258.339 2.324 2.423l.003.084c.011.337-.171.532-.506.543l-.731.023c-.334.011-.528-.173-.539-.51l-.005-.147c-.016-.516-.121-.839-.497-.827s-.46.341-.443.856l.089 2.809c.018.558.181.763.494.753.334-.011.463-.236.44-.951l-.014-.442c-.011-.337.171-.532.506-.543l.731-.023c.334-.011.528.173.539.51l.007.21c.058 1.831-.359 2.855-2.26 2.915-1.702.054-2.499-1.353-2.577-3.815zm5.638 3.087l-.203-6.418c-.011-.337.171-.532.506-.543l.94-.03c.334-.011.528.173.539.51l.068 2.157c.005.168.102.26.269.255l.522-.016c.167-.005.258-.103.253-.271l-.068-2.157c-.011-.337.171-.532.506-.543l.94-.03c.334-.011.528.173.539.51l.203 6.418c.011.337-.171.532-.506.543l-.94.03c-.334.011-.528-.173-.539-.51l-.071-2.262c-.005-.168-.102-.26-.269-.255l-.522.016c-.167.005-.258.103-.253.271l.071 2.262c.011.337-.171.532-.506.543l-.94.03c-.334.011-.528-.173-.539-.51z"/><use href="#G" x="30.922" y="-0.976"/><use href="#E" x="93.364" y="-2.947"/><use href="#F" x="80.289" y="-2.534"/></g><defs ><path id="B" d="M94.503 30.457V5.261c0-1.322.743-2.065 2.065-2.065h3.718c1.322 0 2.065.744 2.065 2.065v25.197c0 1.322-.744 2.065-2.065 2.065h-3.718c-1.322 0-2.065-.744-2.065-2.065z"/><path id="C" d="M104.784 54.614V36.108c0-.971.546-1.517 1.517-1.517h8.616c.971 0 1.517.546 1.517 1.517v1.456c0 .971-.546 1.517-1.517 1.517h-3.61c-.485 0-.758.273-.758.759v2.336c0 .485.273.759.758.759h1.517c.971 0 1.517.546 1.517 1.517v1.517c0 .971-.546 1.517-1.517 1.517h-1.517c-.485 0-.758.273-.758.758v2.336c0 .485.273.758.758.758h3.61c.971 0 1.517.546 1.517 1.517v1.76c0 .971-.546 1.517-1.517 1.517h-8.616c-.971 0-1.517-.546-1.517-1.517z"/><path id="D" d="M30.243 33.505h-11.61V3.271h11.61v30.234z"/><path id="E" d="M70.685 67.459l-.203-6.418c-.011-.337.171-.532.506-.543l2.966-.094c.334-.011.528.173.539.51l.016.505c.011.337-.171.532-.506.543l-1.243.039c-.167.005-.258.103-.253.271l.026.81c.005.168.102.26.269.255l.522-.016c.334-.011.528.173.539.51l.017.526c.011.337-.171.532-.506.543l-.522.016c-.167.005-.258.103-.253.271l.026.81c.005.168.102.26.269.255l1.243-.039c.334-.011.528.173.539.51l.019.61c.011.337-.171.532-.506.543l-2.966.094c-.334.011-.528-.173-.539-.51z"/><path id="F" d="M88.345 66.902l-.203-6.418c-.011-.337.171-.532.506-.543l1.337-.042c.303-.01.495.121.609.402l1.599 3.973c-.145-1.27-.195-2.532-.238-3.91-.011-.337.171-.532.506-.543l.731-.023c.334-.011.528.173.539.51l.192 6.418c.011.347-.171.532-.506.543l-1.326.042c-.303.01-.495-.111-.609-.402l-1.594-4.131.233 4.068c.011.337-.171.532-.506.543l-.731.023c-.334.011-.528-.173-.539-.51z"/><path id="G" d="M129.315 65.609l-.162-5.124c-.005-.168-.102-.26-.269-.255l-.574.018c-.334.011-.528-.173-.539-.51l-.016-.505c-.011-.337.171-.532.506-.543l3.655-.115c.334-.011.528.173.539.51l.016.505c.011.337-.171.532-.506.543l-.574.018c-.167.005-.258.103-.253.271l.162 5.124c.011.337-.171.532-.506.543l-.94.03c-.334.011-.528-.173-.539-.51z"/></defs></svg>