<svg xmlns="http://www.w3.org/2000/svg" fill="none" viewBox="0 0 2400 970"><path d="M2396 344V86c0-11-1-21-5-30a76 76 0 00-18-30 85 85 0 00-59-22h-39a79 79 0 00-53 18c-8-6-15-10-24-13s-20-5-30-5h-50a80 80 0 00-44 11L2060 10c-10-3-20-5-30-5h-160a79 79 0 00-53 18c-7-6-14-10-24-13s-20-5-30-5h-50c-11 0-20 1-30 5a75 75 0 00-30 18 76 76 0 00-17 29c-4 10-5 20-5 30V310h-29V86c0-11-1-21-5-30A75 75 0 00 1550 9c-10-3-20-5-30-5h-50c-11 0-20 1-30 5a70 70 0 00-24 13c-7-6-14-10-24-13s-20-5-30-5h-50c-11 0-20 1-30 5a77 77 0 00-24 13c-7-6-15-10-24-13s-20-5-30-5h-102c-20 0-40 6-55 18a58 58 0 00-10 10c-2-4-6-7-10-10A86 86 0 00 973 4H870c-10 0-20 1-30 5l-10 5c-8-5-19-8-30-8H643c-6 0-13 1-19 3a50 50 0 00-18-2H450c-7 0-14 0-20 3l-20-3H250a40 40 0 00-19 3c-6-2-12-3-19-3H56A55 55 0 00 0 60l1 413c0 13 5 25 13 34A54 54 0 00 0 544L2 770a55 55 0 00 55 55h759c-3 4-4 10-4 16l2 10 20 84a36 36 0 00 32 28h19l13-3 13 2h16c8 0 14-3 20-7 4 3 10 5 16 5h4l40-1c9 0 17-4 23-9 5 5 12 7 20 8h3l13-1a34 34 0 00 15-4c5 2 10 3 16 3h17c6 0 10-2 15-4a50 50 0 00 18 3h8a60 60 0 00 31-8c5 3 10 5 17 5h14c5 0 11-2 16-5 5 3 10 4 18 4h18c5 0 10-2 14-4l10 3h13a34 34 0 00 17-5c4 2 10 4 17 4h18c5 0 10-2 14-4 3 2 6 2 10 2h3l40-1c4 0 8 0 11-2l8 1h13a34 34 0 00 17-4c4 2 10 4 17 4l19-1c10 0 18-5 25-12 6 6 14 9 22 10h13a34 34 0 00 17-5c5 2 10 4 18 4h18c5 0 10-2 13-4l10 2h17c5 0 10-2 13-3l10 2h3l41-1c7 0 12-3 17-6 5 3 10 4 14 4h17c10 0 19-5 25-11s10-16 10-26l-1-15 5 22a36 36 0 00 33 28h19c4 0 8-2 13-4 4 2 8 2 13 2h16c5 0 10-2 15-4a26 26 0 00 10 2h17a40 40 0 00 18-5 30 30 0 00 18 3h14a30 30 0 00 16-5c6 2 12 4 18 4h7a70 70 0 00 26-5l4-2c4 2 10 4 14 4h17c5 0 10-2 14-3l14 2h13c7 0 14-3 20-6l16 5h3l13-1c8 0 14-2 20-6 4 3 10 4 16 5h4l40-1 11-2h21a34 34 0 00 17-3c4 2 10 3 17 3h18c10 0 20-5 25-11a40 40 0 00 10-26l-4-87c0-5 0-10-2-13 3-10 5-20 5-30v-24a72 72 0 00-34-63c4-9 6-20 6-30v-20c0-10-2-20-6-30l13-10a74 74 0 00 21-53v-20c0-20-7-40-20-53l-7-5 16-30c7-21 11-44 11-68" fill="#000"/><path d="M842 422V79c0-18 10-28 28-28h103c17 0 28 8 31 25l34 157 34-157c3-16 13-25 30-25h103c18 0 28 10 28 28v343c0 18-10 28-28 28h-50c-19 0-29-10-29-27 0-79 1-157 9-270l-63 273c-4 16-14 24-32 24h-16c-17 0-27-8-31-24L929 160c8 110 9 186 9 262 0 18-10 27-29 27H870c-18 0-28-10-28-28zm441 0V79c0-18 10-28 29-28h50c19 0 29 10 29 28v343c0 18-10 28-29 28h-50c-18 0-29-10-29-28zm158 0V79c0-18 10-28 28-28h50c19 0 30 10 30 28v268c0 10 4 14 13 14h67c18 0 28 10 28 28v33c0 18-10 28-28 28h-160c-18 0-28-10-28-28zm243 0V79c0-18 10-28 29-28h50c19 0 29 10 29 28v343c0 18-10 28-29 28h-50c-19 0-29-10-29-28zm158 0V79c0-18 10-28 28-28h160c18 0 28 10 28 28v27c0 18-10 28-29 28h-66c-9 0-14 5-14 14V190c0 10 5 14 14 14h28c18 0 28 10 28 28v29c0 18-10 28-28 28h-28c-9 0-14 5-14 14v43c0 10 5 14 14 14h66c19 0 29 10 29 28v33c0 18-10 28-29 28h-160c-17 0-27-10-27-28zm247-82V80c0-20 10-30 28-30h50c20 0 30 10 30 30v246c0 30 8 40 25 40 18 0 25-10 25-40V79c0-18 10-28 28-28h40c18 0 28 10 28 28v262c0 70-46 115-126 115s-128-45-128-116zM840 751V500c0-13 7-20 20-20h70c78 0 107 57 107 144 0 89-28 148-102 148h-74c-13 0-20-8-20-20zm83-44h5c20 0 26-14 26-34v-94c0-23-7-40-25-40-7 0-10 4-10 10v148c0 6 2 10 4 10zm140 44V500c0-13 8-20 20-20h118c13 0 20 7 20 20v20c0 12-7 20-20 20h-50c-6 0-10 3-10 10v32c0 6 4 10 10 10h21c13 0 20 7 20 20v20c0 13-7 20-20 20h-20c-7 0-10 4-10 10v33c0 6 3 10 10 10h50c12 0 20 7 20 20V750c0 13-8 20-20 20h-118c-13 2-20-5-20-18zm240 20h-37c-13 0-20-7-20-20V500c0-13 7-20 20-20h117c13 0 20 7 20 20v20c0 12-7 20-20 20h-50c-6 0-10 3-10 10v32c0 6 4 10 10 10h21c13 0 20 7 20 20v20c0 13-7 20-20 20h-20c-7 0-10 4-10 10V750c0 14-8 21-21 21zm120-20V500c0-13 7-20 20-20H1560c13 0 20 7 20 20v20c0 12-7 20-20 20h-50c-6 0-10 3-10 10v32c0 6 4 10 10 10h21c13 0 20 7 20 20v20c0 13-7 20-20 20h-20c-7 0-10 4-10 10v33c0 6 3 10 10 10h50c12 0 20 7 20 20V750c0 13-8 20-20 20h-118c-13 2-20-5-20-18zm180 0V500c0-13 8-20 20-20h54c12 0 20 4 23 16l58 157c-4-50-4-100-4-153 0-13 7-20 20-20h29c13 0 20 7 20 20v250c0 14-8 20-20 20H1750c-12 0-20-5-23-16L1670 590c3 52 4 104 4 160 0 12-7 20-20 20h-30c-12 0-20-7-20-20zm433-204c2 13-5 20-18 23a219 219 0 01-34 4c-10 0-16-4-16-15 0-17-6-27-20-27-12 0-19 7-19 17 0 45 115 50 115 145 0 60-50 83-99 83-40 0-96-15-96-85 0-13 1-34 16-34 10 0 28 3 39 6 13 4 18 7 18 12v11c0 20 10 28 20 28 13 0 20-7 20-19 0-49-113-52-113-141 0-49 34-80 93-80 65 0 90 25 94 72zm32 204V500c0-13 8-20 20-20h38c13 0 20 7 20 20v250c0 13-7 20-20 20H2090c-13 0-20-7-20-20zm116 0V500c0-13 7-20 20-20h117c13 0 20 7 20 20v20c0 12-7 20-20 20h-49c-6 0-10 3-10 10v32c0 6 4 10 10 10h20c13 0 20 7 20 20v20c0 13-7 20-20 20h-20c-6 0-10 4-10 10v33c0 6 4 10 10 10h50c12 0 20 7 20 20V750c0 13-8 20-20 20h-118c-13 2-20-5-20-18" fill="#fff"/><path d="M211 52H53v411H210v-410zm198 0H250v411h158v-410zm197 0H448v411h158v-410zm196 0H644v411h158v-410zM588 774V546H53v228h535zm280 66 10 57 7-57c0-4 2-6 7-7h10c4 0 7 2 8 7l9 56 6-57c0-4 3-7 7-7h10c5 0 7 2 7 6v5l-14 85c-1 4-3 7-8 7h-16c-5 0-8-2-8-6l-7-36-4 35c0 4-3 7-7 7h-16c-4 0-7-2-8-6l-20-85V840c0-4 2-6 7-6H860c4 0 7 2 8 6zm91 86-3-87c0-4 3-7 7-7l40-2c5 0 8 2 8 7v7c0 4-2 7-7 7h-16a3 3 0 00-4 5v10a3 3 0 00 4 4h7c4 0 7 2 7 7v8c0 4-2 7-6 7h-8a3 3 0 00-3 3v11a3 3 0 00 3 4h17c4 0 7 1 7 7v7c0 5-2 8-6 8l-40 1a7 7 0 01-7-7zm87-3-3-87c0-4 2-7 6-7h13c5 0 7 1 7 6l1 34 15-36c2-4 5-5 8-6h13c4 0 7 1 7 4v4l-17 35-1 2v3l23 44v4c0 3-1 5-5 5h-17a10 10 0 01-8-4l-13-33-1-2c0-1 0 0 0 0-2 0-2 0-2 3v30c0 5-2 8-6 8h-13a7 7 0 01-7-7zm76-23-2-67c0-4 2-7 6-7h13c4 0 7 1 7 6l3 63c0 7 2 10 6 10s7-3 6-10l-2-63c0-5 2-8 6-8h10c5 0 8 3 8 8l2 66c0 18-11 30-31 30s-32-10-32-28zm77 18-3-87c0-4 3-7 7-7l18-1c4 0 7 1 8 6l22 54c-2-17-3-35-3-53 0-4 2-7 6-7h10c5 0 8 2 8 7l3 87c0 5-2 7-7 7l-18 1c-4 0-7-1-8-6l-22-56c2 18 3 35 3 55 0 4-2 7-6 7h-10c-5 0-8-3-8-7zm90-3-3-87c0-4 2-7 6-7h18c5 0 7 0 8 5L1340 880c-2-17-3-35-3-53 0-4 2-7 7-7h10c4 0 7 2 7 7l3 87c0 5-2 8-7 8H1340c-4 0-6-1-8-6L1310 860c3 18 3 35 3 55 0 4-2 7-6 7h-10c-5 0-8-2-8-7zm88-3-3-87c0-4 2-7 7-7l40-2c5 0 7 3 7 8v6c0 5-2 7-6 7l-17 1a3 3 0 00-3 4v10a3 3 0 00 3 4h7c5 0 8 2 8 8v7c0 4-2 7-7 7h-7a3 3 0 00-4 4v10a3 3 0 00 4 4h17c4 0 7 2 7 7v8c0 4-2 7-7 7l-40 1c-3 0-6-2-6-7zm62-1-3-87c0-5 3-8 7-8h18c4 0 7 1 8 6l22 54a470 470 0 01-3-53c0-4 2-7 6-7h10c5 0 8 2 8 7l3 87c0 5-2 7-7 7H1490c-4 0-6 0-8-5l-22-56c2 18 3 35 3 55 0 4-2 7-6 7h-10c-5 0-8-3-8-7zm113-4L1550 820c0-4 3-7 7-7h18c4 0 7 0 8 5l22 54c-2-17-3-35-3-53 0-4 2-7 6-7h10c5 0 8 2 8 7l3 87c0 5-2 8-7 8h-18c-4 0-6-1-8-5l-22-57c3 18 3 35 3 55 0 4-2 7-6 7h-10a7 7 0 01-8-7zm89-3-3-87c0-4 2-7 6-7h14c4 0 7 1 7 6l3 87c0 5-2 8-7 8h-13c-4 0-6-2-7-7zm40-1-3-87c0-5 2-8 6-8h40c5 0 8 1 8 6v7c0 4-2 7-6 7h-17a3 3 0 00-4 4v11a3 3 0 00 4 4h7c5 0 8 2 8 7v7c0 5-3 8-7 8h-7a3 3 0 00-4 3v11a3 3 0 00 4 4h16c5 0 8 1 8 6v8c0 5-3 8-7 8h-40c-3 0-6-1-6-6zm76-2-2-70a3 3 0 00-4-4h-8c-4 0-7-2-7-7v-6c0-5 2-8 6-8l50-1c5 0 8 2 8 7v7c0 4-3 7-7 7h-8a3 3 0 00-3 3l2 70c0 4-2 7-7 7l-13 1c-4 0-7-2-7-6zm94-92 10 57 6-57c0-4 3-6 7-7h10c5 0 8 2 8 6l10 57 6-57c0-5 3-7 7-7h10c4 0 7 2 7 6l-1 4-14 86c0 4-3 6-7 6l-17 1c-4 0-7-2-8-6l-6-36-5 36c0 4-3 6-7 6h-15c-5 0-7-1-8-6l-20-84v-5c0-3 2-6 6-6h13c5 0 7 3 8 6zm128 85-2-12c0-2-1-3-3-3h-10a3 3 0 00-4 3l-2 13c0 4-2 6-7 6l-11 1c-5 0-7-1-7-6v-2l15-88c1-4 3-6 8-6h23c4 0 7 1 8 5l20 87v2c0 4-1 6-6 6h-14c-4 0-7-2-8-6zm-6-36-7-35-3 35h10zm35-10c0-32 7-51 33-53 13 0 30 5 32 33v1c0 5-2 8-7 8h-10c-4 0-7-2-7-8v-2c0-7-1-11-6-11s-7 4-6 11l1 39c0 7 2 10 7 10s6-3 6-13v-6c0-4 2-7 6-7h10c5 0 7 2 7 7v3c1 25-5 40-30 40-24 0-35-18-36-52zm77 42-3-87c0-4 2-7 6-7h13c5 0 8 2 8 7v29a3 3 0 00 4 3h7a3 3 0 00 4-3v-30c0-4 1-7 6-7h13c4 0 7 2 7 7l3 87c0 4-2 7-7 7h-13c-4 0-7-1-7-6v-30a3 3 0 00-4-4h-8a3 3 0 00-3 3v30c0 5-2 8-6 8h-13c-5 0-7-2-7-7zm92-3-2-70a3 3 0 00-3-3h-8c-5 0-8-2-8-7V800c0-4 3-7 7-7l50-1c4 0 7 2 7 7v7c0 4-2 7-6 7h-8a3 3 0 00-4 3l2 70c0 4-2 7-6 7l-13 1c-5 0-8-2-8-7zm53-2-3-87c0-4 2-7 6-7l40-1c5 0 8 2 8 7v6c0 5-2 8-6 8h-17a3 3 0 00-4 4v10a3 3 0 00 4 4h7c4 0 7 3 7 8v7c0 4-2 7-6 7h-7a3 3 0 00-4 4v10a3 3 0 00 4 4h16c5 0 8 2 8 7v8c0 4-3 7-7 7l-40 2c-3 0-6-3-6-8zm62-1-3-87c0-4 2-7 7-7l18-1c4 0 6 1 8 6l21 54c-2-17-2-35-2-53 0-4 2-7 6-7h10c5 0 7 2 7 7l3 87c0 5-2 7-6 7l-18 1c-5 0-7-1-8-6l-22-56c2 18 3 35 3 55 0 4-2 7-7 7h-10a7 7 0 01-7-7" fill="#a3cd39"/></svg>
