<svg xmlns="http://www.w3.org/2000/svg" width="240" height="97" viewBox="0 0 240 97" fill="none" class="injected-svg" data-src="/static/md-new-logo-065418a22c3525224dcda33cb3deeb26.svg" xmlns:xlink="http://www.w3.org/1999/xlink" role="img">
<path d="M239.637 34.4411V8.5559C239.637 7.46829 239.492 6.45318 239.13 5.58309C238.767 4.49548 238.115 3.48037 237.317 2.68279C236.52 1.88521 235.504 1.30515 234.417 0.870102C233.474 0.580072 232.459 0.362549 231.444 0.362549H227.529C226.441 0.362549 225.498 0.507564 224.556 0.870102C223.686 1.16013 222.888 1.59518 222.163 2.17524C221.438 1.59518 220.713 1.16013 219.77 0.870102C218.828 0.580072 217.813 0.362549 216.798 0.362549H211.722C210.634 0.362549 209.692 0.507564 208.749 0.870102C208.242 1.01512 207.807 1.23264 207.372 1.52267C206.937 1.30515 206.501 1.08762 205.994 0.870102C205.051 0.580072 204.036 0.362549 203.021 0.362549H187.069C185.982 0.362549 185.039 0.507564 184.097 0.870102C183.227 1.16013 182.429 1.59518 181.704 2.17524C180.979 1.59518 180.254 1.16013 179.311 0.870102C178.369 0.580072 177.353 0.362549 176.338 0.362549H171.263C170.175 0.362549 169.233 0.507564 168.29 0.870102C167.202 1.23264 166.187 1.88521 165.39 2.68279C164.592 3.48037 163.94 4.49548 163.577 5.58309C163.214 6.52569 163.069 7.5408 163.069 8.5559V31.1058C162.997 31.1058 162.924 31.1058 162.852 31.1058H160.242V8.5559C160.242 7.46829 160.097 6.45318 159.734 5.58309C159.372 4.49548 158.719 3.48037 157.921 2.68279C157.124 1.88521 156.109 1.30515 155.021 0.870102C154.079 0.580072 153.063 0.362549 152.048 0.362549H146.973C145.885 0.362549 144.943 0.507564 144 0.870102C143.13 1.16013 142.332 1.59518 141.607 2.17524C140.882 1.59518 140.157 1.16013 139.214 0.870102C138.272 0.580072 137.257 0.362549 136.242 0.362549H131.166C130.079 0.362549 129.136 0.507564 128.193 0.870102C127.323 1.16013 126.526 1.59518 125.801 2.17524C125.075 1.59518 124.35 1.16013 123.408 0.870102C122.465 0.580072 121.45 0.362549 120.435 0.362549H110.211C108.109 0.362549 106.224 1.01512 104.701 2.24774C104.338 2.53777 104.048 2.82781 103.758 3.19034C103.468 2.82781 103.106 2.46527 102.743 2.17524C101.293 1.01512 99.4078 0.362549 97.3051 0.362549H87.009C85.9214 0.362549 84.9788 0.507564 84.0362 0.870102C83.6737 1.01512 83.2386 1.16013 82.9486 1.37766C82.151 0.870103 81.1359 0.580071 80.0483 0.580071H64.3142C63.6616 0.580071 63.009 0.725086 62.429 0.942609C61.8489 0.725086 61.2688 0.65258 60.6163 0.65258H44.8821C44.1571 0.65258 43.5045 0.797595 42.8519 1.01512C42.1994 0.797595 41.5468 0.65258 40.8217 0.65258H25.0876C24.435 0.65258 23.7824 0.797595 23.2024 1.01512C22.6223 0.797595 21.9697 0.65258 21.3172 0.65258H5.58304C2.61023 0.65258 0.144974 3.11784 0.144974 6.09065L0.21748 47.4199C0.21748 48.6526 0.652526 49.8852 1.45011 50.8278C0.580018 51.8429 0.144974 53.0755 0.144974 54.3807L0.21748 77.148C0.21748 80.1208 2.68274 82.5861 5.65555 82.5861L58.8761 82.5136C58.9486 82.5136 59.0936 82.5136 59.1661 82.5136H81.571C81.2809 83.0212 81.2084 83.6012 81.2084 84.1813C81.2084 84.4713 81.2809 84.6888 81.3534 85.1239L83.3111 93.6073C83.6737 95.2024 84.9788 96.29 86.574 96.4351C86.719 96.4351 86.864 96.4351 86.9365 96.4351L88.4592 96.3625C88.8942 96.3625 89.3293 96.29 89.7643 96.0725C90.1994 96.2175 90.6344 96.29 91.0695 96.29L92.7371 96.2175C93.4622 96.2175 94.1148 96 94.6948 95.6375C95.1299 95.9275 95.7099 96.0725 96.29 96.145C96.435 96.145 96.58 96.145 96.6525 96.145L100.713 96C101.583 96 102.381 95.6375 102.961 95.1299C103.468 95.565 104.193 95.7825 104.918 95.855C105.063 95.855 105.208 95.855 105.281 95.855L106.586 95.7825C107.166 95.7825 107.674 95.6375 108.109 95.42C108.616 95.6375 109.124 95.71 109.704 95.71L111.372 95.6375C111.952 95.6375 112.459 95.4924 112.894 95.2749C113.474 95.4924 114.054 95.6375 114.707 95.6375C114.924 95.6375 115.214 95.6375 115.504 95.6375C116.665 95.565 117.752 95.2749 118.622 94.7674C119.13 95.0574 119.637 95.2749 120.29 95.2749C120.435 95.2749 120.58 95.2749 120.653 95.2749H121.668C122.248 95.2749 122.828 95.1299 123.335 94.8399C123.77 95.0574 124.35 95.2024 125.075 95.2024L126.888 95.1299C127.396 95.1299 127.831 94.9849 128.266 94.8399C128.556 94.9124 128.918 94.9849 129.208 95.0574C129.353 95.0574 129.498 95.0574 129.571 95.0574H130.586C131.166 95.0574 131.746 94.9124 132.254 94.6224C132.689 94.8399 133.269 94.9849 133.994 94.9849L135.807 94.9124C136.314 94.9124 136.749 94.7674 137.184 94.6224C137.474 94.7674 137.837 94.7674 138.127 94.8399C138.272 94.8399 138.417 94.8399 138.489 94.8399L142.55 94.6949C142.912 94.6949 143.275 94.6224 143.637 94.4773C143.855 94.5499 144.072 94.5499 144.363 94.6224C144.508 94.6224 144.653 94.6224 144.725 94.6224H145.74C146.32 94.6224 146.9 94.4773 147.408 94.1873C147.843 94.4048 148.423 94.5499 149.148 94.5499L150.961 94.4773C151.976 94.4773 152.846 94.0423 153.498 93.3172C154.079 93.8973 154.876 94.1873 155.674 94.2598C155.819 94.2598 155.964 94.2598 156.036 94.2598H157.051C157.631 94.2598 158.211 94.1148 158.719 93.8248C159.154 94.0423 159.734 94.1873 160.459 94.1873L162.272 94.1148C162.779 94.1148 163.214 93.9698 163.65 93.8248C163.94 93.8973 164.302 93.9698 164.592 94.0423C164.737 94.0423 164.882 94.0423 164.955 94.0423L166.26 93.9698C166.767 93.9698 167.202 93.8248 167.637 93.6798C167.927 93.7523 168.29 93.8248 168.58 93.8973C168.725 93.8973 168.87 93.8973 168.943 93.8973L173.003 93.7523C173.656 93.7523 174.236 93.5348 174.743 93.2447C175.178 93.4622 175.613 93.6073 176.121 93.6073C176.266 93.6073 176.411 93.6073 176.483 93.6073L177.788 93.5348C178.804 93.5348 179.674 93.0997 180.326 92.4471C180.979 91.7946 181.269 90.852 181.269 89.9094L181.196 88.3867L181.704 90.5619C182.066 92.1571 183.372 93.2447 184.967 93.3897C185.112 93.3897 185.257 93.3897 185.329 93.3897L186.852 93.3172C187.287 93.3172 187.722 93.2447 188.157 93.0272C188.592 93.1722 189.027 93.2447 189.462 93.2447L191.13 93.1722C191.637 93.1722 192.145 93.0272 192.58 92.8097C192.943 92.9547 193.233 93.0272 193.668 93.0272C193.813 93.0272 193.958 93.0272 194.103 93.0272L195.263 92.9547C195.915 92.9547 196.495 92.7372 197.075 92.4471C197.583 92.7372 198.236 92.8822 198.888 92.8097L200.338 92.7372C200.991 92.7372 201.571 92.5196 201.933 92.3021C202.514 92.5196 203.094 92.6646 203.746 92.7372C203.964 92.7372 204.181 92.7372 204.399 92.7372C205.414 92.7372 206.284 92.5196 207.009 92.2296C207.154 92.1571 207.299 92.0846 207.372 92.0121C207.807 92.2296 208.314 92.3746 208.822 92.4471C208.967 92.4471 209.112 92.4471 209.184 92.4471L210.489 92.3746C210.997 92.3746 211.505 92.2296 211.867 92.0846C212.302 92.2296 212.81 92.3021 213.317 92.3021L214.622 92.2296C215.347 92.2296 216 92.0121 216.58 91.6496C217.015 91.9396 217.595 92.0846 218.175 92.1571C218.32 92.1571 218.465 92.1571 218.538 92.1571L219.843 92.0846C220.568 92.0846 221.22 91.8671 221.801 91.5045C222.236 91.7946 222.816 91.9396 223.396 92.0121C223.541 92.0121 223.686 92.0121 223.758 92.0121L227.819 91.8671C228.181 91.8671 228.544 91.7946 228.906 91.6496C229.124 91.7221 229.341 91.7221 229.631 91.7946C229.776 91.7946 229.921 91.7946 229.994 91.7946H231.009C231.589 91.7946 232.169 91.6496 232.677 91.3595C233.112 91.577 233.692 91.7221 234.417 91.7221L236.23 91.6496C237.172 91.6496 238.115 91.2145 238.695 90.5619C239.347 89.9094 239.637 88.9668 239.637 87.9517L239.347 79.2508C239.347 78.8157 239.275 78.3807 239.057 78.0181C239.42 77.0755 239.637 76.0604 239.637 74.9728V72.5801C239.637 70.4774 238.912 68.5922 237.535 67.287C237.172 66.9245 236.737 66.5619 236.23 66.2719C236.592 65.4018 236.81 64.3867 236.81 63.2991V61.2689C236.81 60.2538 236.592 59.2387 236.23 58.2961C236.665 58.0061 237.1 57.716 237.535 57.281C238.912 55.9033 239.637 54.0181 239.637 51.9879V50.0302C239.637 47.9275 238.912 46.0423 237.535 44.7372C237.317 44.5196 237.1 44.3021 236.882 44.1571C237.535 43.2145 238.042 42.1994 238.477 41.1118C239.202 39.0816 239.637 36.8338 239.637 34.4411Z" fill="black"></path>
<path d="M84.1812 42.1993V7.90324C84.1812 6.09055 85.1963 5.07544 87.009 5.07544H97.3051C98.9728 5.07544 100.06 5.94553 100.423 7.6132L103.758 23.2748L107.166 7.6132C107.529 6.01804 108.544 5.07544 110.211 5.07544H120.508C122.32 5.07544 123.335 6.09055 123.335 7.90324V42.1993C123.335 44.012 122.32 45.0271 120.508 45.0271H115.432C113.619 45.0271 112.604 44.0845 112.604 42.2718C112.604 34.441 112.749 26.6102 113.474 15.299L107.166 42.5618C106.804 44.2295 105.788 45.0271 104.048 45.0271H102.381C100.713 45.0271 99.6978 44.2295 99.2628 42.5618L92.8821 16.0966C93.6797 27.1177 93.7522 34.731 93.7522 42.2718C93.7522 44.0845 92.7371 45.0271 90.9244 45.0271H87.009C85.1963 45.0271 84.1812 44.012 84.1812 42.1993Z" fill="white"></path>
<path d="M128.338 42.1993V7.90324C128.338 6.09055 129.353 5.07544 131.166 5.07544H136.242C138.054 5.07544 139.069 6.09055 139.069 7.90324V42.1993C139.069 44.012 138.054 45.0271 136.242 45.0271H131.166C129.353 45.0271 128.338 44.012 128.338 42.1993Z" fill="white"></path>
<path d="M144.072 42.1993V7.90324C144.072 6.09055 145.088 5.07544 146.9 5.07544H151.976C153.788 5.07544 154.804 6.09055 154.804 7.90324V34.731C154.804 35.6011 155.311 36.1087 156.181 36.1087H162.852C164.665 36.1087 165.68 37.1238 165.68 38.9365V42.1993C165.68 44.012 164.665 45.0271 162.852 45.0271H146.9C145.088 45.0271 144.072 44.012 144.072 42.1993Z" fill="white"></path>
<path d="M168.435 42.1993V7.90324C168.435 6.09055 169.45 5.07544 171.263 5.07544H176.338C178.151 5.07544 179.166 6.09055 179.166 7.90324V42.1993C179.166 44.012 178.151 45.0271 176.338 45.0271H171.263C169.45 45.0271 168.435 44.012 168.435 42.1993Z" fill="white"></path>
<path d="M184.169 42.1993V7.90324C184.169 6.09055 185.184 5.07544 186.997 5.07544H202.949C204.761 5.07544 205.776 6.09055 205.776 7.90324V10.586C205.776 12.3987 204.761 13.4138 202.949 13.4138H196.278C195.408 13.4138 194.9 13.9214 194.9 14.7915V19.1419C194.9 20.012 195.408 20.5196 196.278 20.5196H199.106C200.918 20.5196 201.933 21.5347 201.933 23.3473V26.1751C201.933 27.9878 200.918 29.0029 199.106 29.0029H196.278C195.408 29.0029 194.9 29.5105 194.9 30.3806V34.731C194.9 35.6011 195.408 36.1087 196.278 36.1087H202.949C204.761 36.1087 205.776 37.1238 205.776 38.9365V42.1993C205.776 44.012 204.761 45.0271 202.949 45.0271H186.997C185.184 45.0271 184.169 44.012 184.169 42.1993Z" fill="white"></path>
<path d="M208.894 34.006V7.90324C208.894 6.09055 209.909 5.07544 211.722 5.07544H216.798C218.61 5.07544 219.625 6.09055 219.625 7.90324V32.5558C219.625 35.5286 220.495 36.6887 222.163 36.6887C223.976 36.6887 224.701 35.5286 224.701 32.5558V7.90324C224.701 6.09055 225.716 5.07544 227.529 5.07544H231.444C233.257 5.07544 234.272 6.09055 234.272 7.90324V34.0785C234.272 41.0392 229.704 45.6072 221.656 45.6072C213.607 45.6797 208.894 41.1117 208.894 34.006Z" fill="white"></path>
<path d="M84.1087 75.1178V49.9577C84.1087 48.6526 84.8338 47.9275 86.1389 47.9275H93.1722C100.858 47.9275 103.758 53.6556 103.758 62.3565C103.758 71.2749 101.003 77.2205 93.6072 77.2205H86.2114C84.9063 77.148 84.1087 76.423 84.1087 75.1178ZM92.4471 70.6949C92.5921 70.7674 92.7371 70.7674 92.8821 70.7674C94.8398 70.7674 95.4924 69.3172 95.4924 67.287V57.9335C95.4924 55.6133 94.8398 53.9456 92.9546 53.9456C92.3021 53.9456 91.9395 54.3082 91.9395 54.9607V69.6798C92.012 70.3323 92.1571 70.6949 92.4471 70.6949Z" fill="white"></path>
<path d="M106.441 75.1178V49.9577C106.441 48.6526 107.166 47.9275 108.471 47.9275H120.217C121.523 47.9275 122.248 48.6526 122.248 49.9577V51.9154C122.248 53.2205 121.523 53.9456 120.217 53.9456H115.287C114.634 53.9456 114.272 54.3082 114.272 54.9607V58.1511C114.272 58.8036 114.634 59.1662 115.287 59.1662H117.317C118.622 59.1662 119.347 59.8912 119.347 61.1964V63.2266C119.347 64.5317 118.622 65.2568 117.317 65.2568H115.287C114.634 65.2568 114.272 65.6193 114.272 66.2719V69.4622C114.272 70.1148 114.634 70.4773 115.287 70.4773H120.217C121.523 70.4773 122.248 71.2024 122.248 72.5076V74.9003C122.248 76.2054 121.523 76.9305 120.217 76.9305H108.471C107.239 77.148 106.441 76.423 106.441 75.1178Z" fill="white"></path>
<path d="M130.369 77.148H126.671C125.366 77.148 124.64 76.423 124.64 75.1178V49.9577C124.64 48.6526 125.366 47.9275 126.671 47.9275H138.417C139.722 47.9275 140.447 48.6526 140.447 49.9577V51.9154C140.447 53.2205 139.722 53.9456 138.417 53.9456H133.486C132.834 53.9456 132.471 54.3082 132.471 54.9607V58.1511C132.471 58.8036 132.834 59.1662 133.486 59.1662H135.517C136.822 59.1662 137.547 59.8912 137.547 61.1964V63.2266C137.547 64.5317 136.822 65.2568 135.517 65.2568H133.486C132.834 65.2568 132.471 65.6193 132.471 66.2719V74.9728C132.471 76.423 131.674 77.148 130.369 77.148Z" fill="white"></path>
<path d="M142.332 75.1178V49.9577C142.332 48.6526 143.057 47.9275 144.362 47.9275H156.109C157.414 47.9275 158.139 48.6526 158.139 49.9577V51.9154C158.139 53.2205 157.414 53.9456 156.109 53.9456H151.178C150.526 53.9456 150.163 54.3082 150.163 54.9607V58.1511C150.163 58.8036 150.526 59.1662 151.178 59.1662H153.208C154.514 59.1662 155.239 59.8912 155.239 61.1964V63.2266C155.239 64.5317 154.514 65.2568 153.208 65.2568H151.178C150.526 65.2568 150.163 65.6193 150.163 66.2719V69.4622C150.163 70.1148 150.526 70.4773 151.178 70.4773H156.109C157.414 70.4773 158.139 71.2024 158.139 72.5076V74.9003C158.139 76.2054 157.414 76.9305 156.109 76.9305H144.362C143.057 77.148 142.332 76.423 142.332 75.1178Z" fill="white"></path>
<path d="M160.459 75.1178V49.9577C160.459 48.6526 161.184 47.9275 162.489 47.9275H167.782C169.015 47.9275 169.74 48.435 170.103 49.5952L175.903 65.3293C175.468 60.3263 175.468 55.3958 175.468 49.9577C175.468 48.6526 176.193 47.9275 177.498 47.9275H180.399C181.704 47.9275 182.429 48.6526 182.429 49.9577L182.356 75.1178C182.356 76.4955 181.631 77.148 180.326 77.148H175.106C173.873 77.148 173.148 76.6405 172.785 75.4804L166.985 59.0937C167.347 64.3142 167.42 69.4622 167.42 75.0453C167.42 76.3505 166.695 77.0755 165.39 77.0755H162.489C161.184 77.148 160.459 76.423 160.459 75.1178Z" fill="white"></path>
<path d="M203.746 54.7432C203.891 56.0484 203.239 56.6284 201.861 56.991C200.918 57.2085 199.106 57.426 198.453 57.426C197.438 57.426 196.858 56.991 196.858 55.9034C196.858 54.1632 196.278 53.2206 194.828 53.2206C193.668 53.2206 193.015 53.8731 193.015 54.8882C193.015 59.3837 204.544 59.8188 204.544 69.3898C204.544 75.4079 199.541 77.6556 194.61 77.6556C190.55 77.6556 184.967 76.2055 184.967 69.2447C184.967 67.8671 185.112 65.8369 186.562 65.8369C187.577 65.8369 189.39 66.1269 190.477 66.417C191.782 66.7795 192.29 67.0695 192.29 67.6496C192.29 68.0846 192.217 68.4472 192.217 68.7372C192.217 70.6949 193.233 71.4925 194.393 71.4925C195.625 71.4925 196.278 70.7674 196.278 69.6073C196.278 64.7493 184.967 64.3867 184.967 55.4683C184.967 50.6103 188.447 47.4925 194.32 47.4925C200.846 47.42 203.239 49.9577 203.746 54.7432Z" fill="white"></path>
<path d="M206.937 75.1178V49.9577C206.937 48.6526 207.662 47.9275 208.967 47.9275H212.665C213.97 47.9275 214.695 48.6526 214.695 49.9577V75.1178C214.695 76.423 213.97 77.148 212.665 77.148H208.967C207.662 77.148 206.937 76.423 206.937 75.1178Z" fill="white"></path>
<path d="M218.465 75.1178V49.9577C218.465 48.6526 219.19 47.9275 220.495 47.9275H232.242C233.547 47.9275 234.272 48.6526 234.272 49.9577V51.9154C234.272 53.2205 233.547 53.9456 232.242 53.9456H227.311C226.659 53.9456 226.296 54.3082 226.296 54.9607V58.1511C226.296 58.8036 226.659 59.1662 227.311 59.1662H229.341C230.646 59.1662 231.372 59.8912 231.372 61.1964V63.2266C231.372 64.5317 230.646 65.2568 229.341 65.2568H227.311C226.659 65.2568 226.296 65.6193 226.296 66.2719V69.4622C226.296 70.1148 226.659 70.4773 227.311 70.4773H232.242C233.547 70.4773 234.272 71.2024 234.272 72.5076V74.9003C234.272 76.2054 233.547 76.9305 232.242 76.9305H220.495C219.19 77.148 218.465 76.423 218.465 75.1178Z" fill="white"></path>
<path d="M21.0997 5.22046H5.29301V46.3322H21.0997V5.22046Z" fill="#A3CD39"></path>
<path d="M40.8942 5.22046H25.0876V46.3322H40.8942V5.22046Z" fill="#A3CD39"></path>
<path d="M60.6163 5.22046H44.8096V46.3322H60.6163V5.22046Z" fill="#A3CD39"></path>
<path d="M80.1933 5.22046H64.3867V46.3322H80.1933V5.22046Z" fill="#A3CD39"></path>
<path d="M58.7899 77.3936L58.7899 54.6262L5.27935 54.6262L5.27933 77.3936L58.7899 77.3936Z" fill="#A3CD39"></path>
<path d="M86.864 84.0361L87.8791 89.6917L88.4592 84.0361C88.5317 83.6011 88.7492 83.3835 89.1842 83.311H90.1993C90.6344 83.311 90.9244 83.5286 90.9969 83.9636L91.867 89.6192L92.5196 83.8911C92.5921 83.456 92.8096 83.2385 93.2447 83.2385H94.2598C94.6948 83.2385 94.9123 83.3835 94.9123 83.8186C94.9123 83.8911 94.9123 83.9636 94.8398 84.2536L93.4622 92.8095C93.3897 93.2446 93.1722 93.4621 92.7371 93.4621L91.0694 93.5346C90.6344 93.5346 90.3444 93.3171 90.2719 92.882L89.6193 89.3292L89.1842 92.8095C89.1117 93.2446 88.8942 93.4621 88.4592 93.4621L86.9365 93.5346C86.5015 93.5346 86.2114 93.3171 86.1389 92.882L84.1812 84.3986C84.1087 84.1086 84.1087 84.0361 84.1087 83.9636C84.1087 83.6011 84.3262 83.3835 84.7613 83.3835L86.0664 83.311C86.5015 83.3835 86.7915 83.6011 86.864 84.0361Z" fill="#A3CD39"></path>
<path d="M95.9275 92.592L95.6374 83.8911C95.6374 83.456 95.8549 83.166 96.29 83.166L100.35 83.021C100.785 83.021 101.075 83.2385 101.075 83.7461V84.3986C101.075 84.8337 100.858 85.1237 100.423 85.1237L98.7552 85.1962C98.5377 85.1962 98.3927 85.3412 98.3927 85.5588V86.6464C98.3927 86.8639 98.5377 87.0089 98.7552 87.0089H99.4803C99.9154 87.0089 100.205 87.2264 100.205 87.734V88.4591C100.205 88.8941 99.9879 89.1841 99.5528 89.1841H98.8278C98.6102 89.1841 98.4652 89.3292 98.4652 89.5467V90.6343C98.4652 90.8518 98.6102 90.9968 98.8278 90.9968L100.495 90.9243C100.93 90.9243 101.221 91.1418 101.221 91.6494V92.447C101.221 92.882 101.003 93.172 100.568 93.172L96.5075 93.3171C96.2175 93.2446 95.9275 93.027 95.9275 92.592Z" fill="#A3CD39"></path>
<path d="M104.556 92.3022L104.266 83.6013C104.266 83.1662 104.483 82.8762 104.918 82.8762L106.224 82.8037C106.659 82.8037 106.949 83.0212 106.949 83.5288L107.021 86.8641L108.544 83.3113C108.689 82.9487 108.979 82.8037 109.341 82.7312L110.646 82.6587C111.009 82.6587 111.299 82.8037 111.299 83.0937C111.299 83.1662 111.299 83.3113 111.227 83.4563L109.559 87.0091C109.486 87.0817 109.486 87.1542 109.486 87.2267C109.486 87.2992 109.486 87.3717 109.559 87.5167L111.807 91.9397C111.879 92.0847 111.879 92.1572 111.879 92.3022C111.879 92.5922 111.662 92.8097 111.299 92.8097L109.631 92.8823C109.269 92.8823 108.979 92.7372 108.761 92.3747L107.456 89.1119C107.456 89.0394 107.384 88.9669 107.384 88.8943C107.384 88.8218 107.311 88.8218 107.311 88.8218C107.239 88.8218 107.166 88.9668 107.166 89.1844L107.239 92.2297C107.239 92.6647 107.021 92.9548 106.586 92.9548L105.281 93.0273C104.846 93.0273 104.556 92.7372 104.556 92.3022Z" fill="#A3CD39"></path>
<path d="M112.169 89.982L111.952 83.3113C111.952 82.8762 112.169 82.5862 112.604 82.5862L113.909 82.5137C114.344 82.5137 114.634 82.7312 114.634 83.2387L114.852 89.4744C114.852 90.1995 115.069 90.4895 115.504 90.4895C115.94 90.4895 116.157 90.1995 116.085 89.4019L115.867 83.1662C115.867 82.7312 116.085 82.4412 116.52 82.4412H117.535C117.97 82.4412 118.26 82.6587 118.26 83.1662L118.477 89.8369C118.55 91.5771 117.39 92.8097 115.359 92.8823C113.474 92.8823 112.242 91.7946 112.169 89.982Z" fill="#A3CD39"></path>
<path d="M119.927 91.7946L119.637 83.0937C119.637 82.6587 119.855 82.3687 120.29 82.3687L122.103 82.2961C122.538 82.2961 122.755 82.4412 122.9 82.8762L125.075 88.3143C124.858 86.5741 124.785 84.8339 124.785 83.0212C124.785 82.5862 125.003 82.2961 125.438 82.2961H126.453C126.888 82.2961 127.178 82.5137 127.178 83.0212L127.468 91.7221C127.468 92.2297 127.251 92.4472 126.816 92.4472L125.003 92.5197C124.568 92.5197 124.35 92.3747 124.205 91.9396L122.03 86.2841C122.248 88.0967 122.32 89.8369 122.32 91.7946C122.32 92.2297 122.103 92.5197 121.668 92.5197H120.653C120.217 92.5197 119.927 92.2297 119.927 91.7946Z" fill="#A3CD39"></path>
<path d="M128.846 91.5046L128.556 82.8037C128.556 82.3686 128.773 82.0786 129.208 82.0786L131.021 82.0061C131.456 82.0061 131.674 82.1511 131.819 82.5862L133.994 88.0242C133.776 86.284 133.704 84.5439 133.704 82.7312C133.704 82.2961 133.921 82.0061 134.356 82.0061H135.372C135.807 82.0061 136.097 82.2236 136.097 82.7312L136.387 91.4321C136.387 91.9396 136.169 92.1572 135.734 92.1572L133.921 92.2297C133.486 92.2297 133.269 92.0847 133.124 91.6496L130.949 85.994C131.166 87.8067 131.239 89.5469 131.239 91.5046C131.239 91.9396 131.021 92.2297 130.586 92.2297H129.571C129.063 92.2297 128.846 92.0121 128.846 91.5046Z" fill="#A3CD39"></path>
<path d="M137.692 91.2145L137.402 82.5136C137.402 82.0786 137.619 81.7886 138.054 81.7886L142.115 81.6436C142.55 81.6436 142.84 81.8611 142.84 82.3686V83.0212C142.84 83.4562 142.622 83.7463 142.187 83.7463L140.52 83.8188C140.302 83.8188 140.157 83.9638 140.157 84.1813V85.2689C140.157 85.4865 140.302 85.6315 140.52 85.6315H141.245C141.68 85.6315 141.97 85.849 141.97 86.3565V87.0816C141.97 87.5167 141.752 87.8067 141.317 87.8067H140.592C140.375 87.8067 140.23 87.9517 140.23 88.1692V89.2568C140.23 89.4744 140.375 89.6194 140.592 89.6194L142.26 89.5469C142.695 89.5469 142.985 89.7644 142.985 90.2719V91.0695C142.985 91.5046 142.767 91.7946 142.332 91.7946L138.272 91.9396C137.982 91.9396 137.692 91.7221 137.692 91.2145Z" fill="#A3CD39"></path>
<path d="M143.927 91.0695L143.637 82.3686C143.637 81.9336 143.855 81.6436 144.29 81.6436L146.103 81.571C146.538 81.571 146.755 81.7161 146.9 82.1511L149.075 87.5892C148.858 85.849 148.785 84.1088 148.785 82.2961C148.785 81.8611 149.003 81.571 149.438 81.571H150.453C150.888 81.571 151.178 81.7886 151.178 82.2961L151.468 90.997C151.468 91.5046 151.251 91.7221 150.816 91.7221L149.003 91.7946C148.568 91.7946 148.35 91.6496 148.205 91.2146L146.03 85.559C146.248 87.3717 146.32 89.1118 146.32 91.0695C146.32 91.5046 146.103 91.7946 145.668 91.7946H144.653C144.217 91.7221 143.927 91.5046 143.927 91.0695Z" fill="#A3CD39"></path>
<path d="M155.239 90.707L154.949 82.0061C154.949 81.571 155.166 81.281 155.601 81.281L157.414 81.2085C157.849 81.2085 158.066 81.3535 158.211 81.7886L160.387 87.2266C160.169 85.4864 160.097 83.7463 160.097 81.9336C160.097 81.4985 160.314 81.2085 160.749 81.2085H161.764C162.199 81.2085 162.489 81.426 162.489 81.9336L162.779 90.6345C162.779 91.142 162.562 91.3596 162.127 91.3596L160.314 91.4321C159.879 91.4321 159.662 91.2871 159.517 90.852L157.341 85.1964C157.559 87.0091 157.631 88.7493 157.631 90.707C157.631 91.142 157.414 91.4321 156.979 91.4321H155.964C155.529 91.4321 155.239 91.142 155.239 90.707Z" fill="#A3CD39"></path>
<path d="M164.085 90.4169L163.795 81.716C163.795 81.281 164.012 80.991 164.447 80.991L165.752 80.9185C166.187 80.9185 166.477 81.136 166.477 81.6435L166.767 90.3444C166.767 90.7795 166.55 91.0695 166.115 91.0695L164.81 91.142C164.375 91.142 164.157 90.852 164.085 90.4169Z" fill="#A3CD39"></path>
<path d="M168.072 90.2719L167.782 81.571C167.782 81.136 168 80.8459 168.435 80.8459L172.495 80.7009C172.93 80.7009 173.22 80.9185 173.22 81.426V82.0786C173.22 82.5136 173.003 82.8036 172.568 82.8036L170.9 82.8762C170.683 82.8762 170.538 83.0212 170.538 83.2387V84.3263C170.538 84.5438 170.683 84.6888 170.9 84.6888H171.625C172.06 84.6888 172.35 84.9064 172.35 85.4139V86.139C172.35 86.574 172.133 86.8641 171.698 86.8641H170.973C170.755 86.8641 170.61 87.0091 170.61 87.2266V88.3142C170.61 88.5317 170.755 88.6768 170.973 88.6768L172.64 88.6042C173.075 88.6042 173.366 88.8218 173.366 89.3293V90.1269C173.366 90.562 173.148 90.852 172.713 90.852L168.653 90.997C168.363 90.997 168.145 90.7795 168.072 90.2719Z" fill="#A3CD39"></path>
<path d="M175.686 90.0544L175.468 83.0937C175.468 82.8762 175.323 82.7311 175.106 82.7311H174.308C173.873 82.7311 173.583 82.5136 173.583 82.0061V81.3535C173.583 80.9184 173.801 80.6284 174.236 80.6284L179.239 80.4834C179.674 80.4834 179.964 80.7009 179.964 81.2085V81.861C179.964 82.2961 179.746 82.5861 179.311 82.5861H178.514C178.296 82.5861 178.151 82.7311 178.151 82.9487L178.369 89.9094C178.369 90.3444 178.151 90.6345 177.716 90.6345L176.411 90.707C175.976 90.7795 175.686 90.4894 175.686 90.0544Z" fill="#A3CD39"></path>
<path d="M185.112 80.9184L186.127 86.574L186.707 80.9184C186.779 80.4834 186.997 80.2659 187.432 80.1934H188.447C188.882 80.1934 189.172 80.4109 189.245 80.8459L190.115 86.5015L190.767 80.7734C190.84 80.3384 191.057 80.1208 191.492 80.1208H192.508C192.943 80.1208 193.16 80.2659 193.16 80.7009C193.16 80.7734 193.16 80.8459 193.088 81.136L191.71 89.6918C191.637 90.1269 191.42 90.3444 190.985 90.3444L189.317 90.4169C188.882 90.4169 188.592 90.1994 188.52 89.7644L187.867 86.2115L187.432 89.7644C187.359 90.1994 187.142 90.4169 186.707 90.4169L185.184 90.4894C184.749 90.4894 184.459 90.2719 184.387 89.8369L182.429 81.3535C182.356 81.0634 182.356 80.9909 182.356 80.9184C182.356 80.5559 182.574 80.3384 183.009 80.3384L184.314 80.2659C184.822 80.2659 185.039 80.5559 185.112 80.9184Z" fill="#A3CD39"></path>
<path d="M197.946 89.4018L197.728 88.1692C197.728 87.9517 197.583 87.8791 197.366 87.8791H196.35C196.133 87.8791 195.988 88.0242 195.988 88.2417L195.843 89.4743C195.77 89.9094 195.553 90.1269 195.118 90.1269L193.958 90.1994C193.523 90.1994 193.305 90.0544 193.305 89.6193C193.305 89.5468 193.305 89.4743 193.305 89.4018L194.828 80.6284C194.9 80.1934 195.118 79.9758 195.553 79.9758L197.873 79.9033C198.308 79.9033 198.598 80.1208 198.671 80.4834L200.773 89.1843C200.773 89.2568 200.773 89.3293 200.773 89.4018C200.773 89.7643 200.556 89.9819 200.121 89.9819L198.671 90.0544C198.308 90.0544 198.018 89.8369 197.946 89.4018ZM197.293 85.8489L196.64 82.2961L196.278 85.8489H197.293Z" fill="#A3CD39"></path>
<path d="M200.773 84.8339C200.701 81.5711 201.498 79.6859 204.109 79.5408C205.414 79.4683 207.154 79.9759 207.299 82.8037V82.9487C207.299 83.3837 207.082 83.6738 206.646 83.6738H205.631C205.196 83.6738 204.906 83.4563 204.906 82.9487V82.7312C204.906 82.0061 204.761 81.5711 204.254 81.5711C203.746 81.5711 203.601 82.0061 203.674 82.7312L203.819 86.5741C203.819 87.2992 204.036 87.5892 204.471 87.5892C204.906 87.5892 205.124 87.2992 205.051 86.284V85.704C205.051 85.2689 205.269 84.9789 205.704 84.9789H206.719C207.154 84.9789 207.444 85.1964 207.444 85.704V85.994C207.517 88.4593 206.937 89.9094 204.399 89.9819C202.006 90.0544 200.918 88.1692 200.773 84.8339Z" fill="#A3CD39"></path>
<path d="M208.459 89.0393L208.169 80.3384C208.169 79.9033 208.387 79.6133 208.822 79.6133L210.127 79.5408C210.562 79.5408 210.852 79.7583 210.852 80.2658L210.924 83.1661C210.924 83.3837 211.069 83.5287 211.287 83.5287H212.012C212.23 83.5287 212.375 83.3837 212.375 83.1661L212.302 80.2658C212.302 79.8308 212.52 79.5408 212.955 79.5408L214.26 79.4683C214.695 79.4683 214.985 79.6858 214.985 80.1933L215.275 88.8942C215.275 89.3293 215.057 89.6193 214.622 89.6193L213.317 89.6918C212.882 89.6918 212.592 89.4743 212.592 88.9667L212.52 85.9214C212.52 85.7039 212.375 85.5589 212.157 85.5589H211.432C211.214 85.5589 211.069 85.7039 211.069 85.9214L211.142 88.9667C211.142 89.4018 210.924 89.6918 210.489 89.6918L209.184 89.7643C208.749 89.6918 208.459 89.4743 208.459 89.0393Z" fill="#A3CD39"></path>
<path d="M217.74 88.7492L217.523 81.7885C217.523 81.571 217.378 81.426 217.16 81.426H216.362C215.927 81.426 215.637 81.2084 215.637 80.7009V80.0483C215.637 79.6133 215.855 79.3232 216.29 79.3232L221.293 79.1782C221.728 79.1782 222.018 79.3957 222.018 79.9033V80.5559C222.018 80.9909 221.801 81.2809 221.366 81.2809H220.568C220.35 81.2809 220.205 81.426 220.205 81.6435L220.423 88.6042C220.423 89.0392 220.205 89.3293 219.77 89.3293L218.465 89.4018C218.03 89.4018 217.74 89.1843 217.74 88.7492Z" fill="#A3CD39"></path>
<path d="M222.961 88.5317L222.671 79.8308C222.671 79.3957 222.888 79.1057 223.323 79.1057L227.384 78.9607C227.819 78.9607 228.109 79.1782 228.109 79.6858V80.3383C228.109 80.7734 227.891 81.0634 227.456 81.0634L225.788 81.1359C225.571 81.1359 225.426 81.2809 225.426 81.4985V82.5861C225.426 82.8036 225.571 82.9486 225.788 82.9486H226.514C226.949 82.9486 227.239 83.1661 227.239 83.6737V84.3988C227.239 84.8338 227.021 85.1238 226.586 85.1238H225.861C225.643 85.1238 225.498 85.2689 225.498 85.4864V86.574C225.498 86.7915 225.643 86.9365 225.861 86.9365L227.529 86.864C227.964 86.864 228.254 87.0815 228.254 87.5891V88.3867C228.254 88.8217 228.036 89.1118 227.601 89.1118L223.541 89.2568C223.251 89.2568 222.961 89.0393 222.961 88.5317Z" fill="#A3CD39"></path>
<path d="M229.196 88.3867L228.906 79.6858C228.906 79.2507 229.124 78.9607 229.559 78.9607L231.372 78.8882C231.807 78.8882 232.024 79.0332 232.169 79.4682L234.344 84.9063C234.127 83.1661 234.054 81.4259 234.054 79.6133C234.054 79.1782 234.272 78.8882 234.707 78.8882H235.722C236.157 78.8882 236.447 79.1057 236.447 79.6133L236.737 88.3142C236.737 88.8217 236.52 89.0392 236.085 89.0392L234.272 89.1117C233.837 89.1117 233.619 88.9667 233.474 88.5317L231.299 82.8761C231.517 84.6888 231.589 86.429 231.589 88.3867C231.589 88.8217 231.372 89.1117 230.937 89.1117H229.921C229.486 89.0392 229.196 88.8217 229.196 88.3867Z" fill="#A3CD39"></path>
</svg>